<?xml version="1.0" standalone="no"?>
<!DOCTYPE svg PUBLIC "-//W3C//DTD SVG 20010904//EN"
 "http://www.w3.org/TR/2001/REC-SVG-20010904/DTD/svg10.dtd">
<svg version="1.0" xmlns="http://www.w3.org/2000/svg"
 width="464.000000pt" height="464.000000pt" viewBox="0 0 464.000000 464.000000"
 preserveAspectRatio="xMidYMid meet">
<metadata>
Created by potrace 1.11, written by Peter Selinger 2001-2013
</metadata>
<g transform="translate(0.000000,464.000000) scale(0.100000,-0.100000)"
fill="#000000" stroke="none">
<path d="M2193 2985 c-115 -35 -215 -151 -214 -248 1 -154 202 -236 312 -126
32 32 39 46 39 79 0 78 -55 133 -124 124 -37 -4 -76 -45 -76 -79 0 -48 70 -76
100 -39 15 17 3 54 -16 54 -8 0 -14 5 -14 10 0 18 56 11 75 -10 26 -29 14 -87
-26 -124 -28 -25 -37 -28 -82 -23 -43 4 -56 10 -85 42 -32 34 -34 41 -30 87
16 165 238 238 358 118 79 -79 108 -203 101 -433 l-1 -48 -32 37 c-82 93 -211
124 -347 85 -101 -30 -166 -112 -180 -226 -23 -196 94 -356 271 -372 85 -7
157 20 221 83 26 26 47 52 47 58 1 6 10 -11 20 -38 11 -27 31 -61 45 -76 72
-75 205 -26 240 88 9 31 -18 30 -33 -2 -24 -54 -104 -38 -136 28 -28 58 -25
230 6 370 19 85 16 312 -5 375 -35 103 -93 164 -189 198 -56 20 -191 25 -245
8z m200 -584 c34 -21 79 -77 94 -118 4 -12 6 -53 3 -92 -4 -60 -9 -76 -32
-100 -65 -69 -201 -95 -270 -53 -65 40 -99 142 -84 247 9 58 64 117 122 132
58 15 128 8 167 -16z"/>
</g>
</svg>
